{"title":"Cinemawala (2016) - DVDRip - XviD - AC3 - ESub [DDR]","uid":15455038,"size":1609075743,"categoryP":"video","categoryS":"movies","magnet":"?xt=urn:btih:ed71d3342494688eda0f51fde0668ad8f85ced0d&amp;dn=Cinemawala+%282016%29+-+DVDRip+-+XviD+-+AC3+-+ESub+%5BDDR%5D&amp;tr=udp%3A%2F%2Ftracker.leechers-paradise.org%3A6969&amp;tr=udp%3A%2F%2Fzer0day.ch%3A1337&amp;tr=udp%3A%2F%2Fopen.demonii.com%3A1337&amp;tr=udp%3A%2F%2Ftracker.coppersurfer.tk%3A6969&amp;tr=udp%3A%2F%2Fexodus.desync.com%3A6969","seeders":2,"leechers":2,"uploader":"SaM","files":21,"time":1469978287,"description":"(A film by Kaushik Ganguly)\r\n\r\n\r\n\r\n\r\nDVD Rip - XviD - Eng Sub\r\n\r\nFull 5.1 AC3 - AVI - 15000 MB\r\n\r\n*2016*\r\n\r\n\r\n\r\n! || |= ®\r\n\r\n\r\nFormat : AVI\r\nFormat/Info : Audio Video Interleave\r\nFile size : 1.47 GiB\r\nDuration : 1h 44mn\r\nOverall bit rate : 2 009 Kbps\r\n\r\nVideo\r\nID : 0\r\nFormat : MPEG-4 Visual\r\nFormat profile : Advanced   \r\nFormat settings, BVOP : 3\r\nFormat settings, QPel : No\r\nFormat settings, GMC : No warppoints\r\nFormat settings, Matrix : Custom\r\nCodec ID : XVID\r\nCodec ID/Hint : XviD\r\nDuration : 1h 44mn\r\nBit rate : 1 554 Kbps\r\nWidth : 720 pixels\r\nHeight : 304 pixels\r\nDisplay aspect ratio : 2.35:1\r\nFrame rate : 23.976 (24000/1001) fps\r\ncolor space : YUV\r\nChroma subsampling : 4:2:0\r\nBit depth : 8 bits\r\nScan type : Progressive\r\nCompression mode : Lossy\r\nBits/(Pixel*Frame) : 0.296\r\nStream size : 1.14 GiB (77%)\r\nWriting library : XviD 67\r\n\r\nAudio\r\nID : 1\r\nFormat : AC-3\r\nFormat/Info : Audio Coding 3\r\nMode extension : CM (complete main)\r\nFormat settings, Endianness : Big\r\nCodec ID : 2000\r\nDuration : 1h 44mn\r\nBit rate mode : Constant\r\nBit rate : 448 Kbps\r\nChannel(s) : 6 channels\r\nChannel positions : Front: L C R, Side: L R, LFE\r\nSampling rate : 48.0 KHz\r\nFrame rate : 31.250 fps (1536 spf)\r\nCompression mode : Lossy\r\nStream size : 335 MiB (22%)\r\nAlignment : Aligned on interleaves\r\nInterleave, duration : 64 ms (1.53 video frames)\r\nInterleave, preload duratio : 192 ms\r\nTitle : Full 5.1 AC3 [DDR]\r\n \nhttp://extraimago.com/image/w8o3 \nhttp://extraimago.com/image/w8ob \nhttp://extraimago.com/image/w8oh \nhttp://extraimago.com/image/w8od \nhttp://extraimago.com/image/w8oI \nhttp://extraimago.com/image/w8ol \nhttp://extraimago.com/image/w8oi \nhttp://extraimago.com/image/w8om \nhttp://extraimago.com/image/w8oR \nhttp://extraimago.com/image/w8oQ \nhttp://extraimago.com/image/w8oL \nhttp://extraimago.com/image/w8oy \nhttp://extraimago.com/image/w8oq \nhttp://extraimago.com/image/w8oS \nhttp://extraimago.com/image/w8oO","torrent":{"xt":"urn:btih:ed71d3342494688eda0f51fde0668ad8f85ced0d","amp;dn":"Cinemawala+%282016%29+-+DVDRip+-+XviD+-+AC3+-+ESub+%5BDDR%5D","amp;tr":["udp%3A%2F%2Ftracker.leechers-paradise.org%3A6969","udp%3A%2F%2Fzer0day.ch%3A1337","udp%3A%2F%2Fopen.demonii.com%3A1337","udp%3A%2F%2Ftracker.coppersurfer.tk%3A6969","udp%3A%2F%2Fexodus.desync.com%3A6969"],"infoHash":"ed71d3342494688eda0f51fde0668ad8f85ced0d","infoHashBuffer":{"type":"Buffer","data":[237,113,211,52,36,148,104,142,218,15,81,253,224,102,138,216,248,92,237,13]},"announce":[],"urlList":[]}}